<svg width="48" height="48" viewBox="0 0 48 48" fill="none" xmlns="http://www.w3.org/2000/svg">
<path d="M9.51132 42.4332C8.27418 40.9908 8.19498 40.2696 9.27373 40.2696C10.8918 40.2696 14.9617 39.8942 15.2288 38.7068C15.4961 37.5194 15.2388 36.1662 13.7944 35.727C12.35 35.2878 11.7325 35.5442 11.4918 35.9501C11.2512 36.3559 11.4672 37.2481 13.6688 37.2481C15.8706 37.2481 17.5548 36.065 17.5548 35.1986C17.5548 34.3322 16.3831 31.902 14.0976 31.332C11.812 30.762 11.0284 31.332 11.0284 32.2523C11.0284 33.1726 16.3939 34.6391 18.3035 34.043C20.2129 33.447 24.6629 31.167 21.1088 27.687C17.5548 24.207 14.1254 24.293 13.6688 25.9901C13.2124 27.687 18.9284 30.6726 22.7305 30.6726C26.5326 30.6726 29.7488 30.2984 30.2288 28.3927C30.7088 26.487 28.9046 22.4768 25.0068 20.2819C21.1088 18.087 13.7094 15.0901 13.2124 18.6228C12.7153 22.1555 17.8525 25.2724 21.1088 25.647C24.3653 26.0216 29.7358 26.487 32.8688 22.8312C34.409 20.8579 33.54 18.0596 29.2688 15.192C23.5406 11.8078 17.2448 9.12007 15.4568 12.5443C13.6688 15.9685 20.9069 21.1428 22.7305 21.987C24.5542 22.8312 33.36 27.0596 38.2265 23.607C41.64 20.9396 37.5199 14.1012 32.8688 10.9219C28.2178 7.74269 18.7092 3.58196 15.8291 6.8016C14.869 7.78662 14.869 8.70046 15.8291 9.54311" stroke="black" stroke-opacity="0.9" stroke-width="1.92" stroke-linecap="round" stroke-linejoin="round"/>
</svg>
