<svg width="48" height="48" viewBox="0 0 48 48" fill="none" xmlns="http://www.w3.org/2000/svg">
<path d="M14.7065 30.4307L11.5927 32.0832C11.7042 30.3602 11.76 29.2138 11.76 28.6436C11.76 26.5996 11.5927 25.9153 11.5927 25.9153C9.67145 27.0916 7.64481 27.5438 5.36774 27.5438C5.13531 27.5438 8.43303 22.168 8.43303 21.2248C8.43303 20.6024 2.92261 18.5657 3.38794 18.5657C3.85328 18.5657 10.2306 16.8277 10.2306 16.2553C10.2306 15.683 6.54773 10.5233 7.2277 10.4463C9.75777 10.1596 12.0945 11.5029 14.7065 11.6438C14.7065 11.6438 15.9066 7.60766 16.6788 7.60766C17.1936 7.60766 18.6418 8.55387 21.0233 10.4463C21.4853 7.79933 22.5824 5.99569 23.0676 5.8839C23.7958 5.7162 25.676 10.8576 26.5011 10.8576C27.3262 10.8576 29.1238 7.60766 29.7888 7.60766C30.454 7.60766 31.8062 12.6865 32.3831 12.6865C32.7677 12.6865 33.918 11.3452 35.834 8.66239C36.5481 13.1339 37.0571 15.3697 37.3611 15.3697C37.8171 15.3697 42.8078 12.417 42.8078 13.3237C42.8078 14.2306 40.5614 18.5657 40.5614 18.5657C40.5614 18.5657 42.8266 18.6882 43.904 19.1935C44.9814 19.6988 40.9206 23.0485 40.9206 23.0485C40.9206 23.0485 44.9684 26.6479 44.6122 27.0694C44.3747 27.3502 42.3666 27.2495 38.5878 26.7672C38.55 30.3112 38.3362 32.0832 37.9462 32.0832C37.3611 32.0832 36.1394 29.4126 35.834 29.3447C35.5287 29.2769 33.4967 33.5515 33.094 33.7872C32.6913 34.023 29.1596 32.5628 28.7078 32.0832C28.256 31.6036 26.0678 36.3038 26.0678 36.3038C26.0678 36.3038 23.2756 35.4455 21.1478 32.4638C18.6278 38.1638 19.1678 39.0637 11.5927 42.1274C14.2478 39.1237 14.7065 37.5638 16.1873 32.0832" stroke="black" stroke-opacity="0.9" stroke-width="1.92" stroke-linecap="round" stroke-linejoin="round"/>
</svg>
