<svg width="114" height="39" viewBox="0 0 114 39" fill="none" xmlns="http://www.w3.org/2000/svg">
<path d="M53.296 16.7238C52.6133 16.7238 51.9947 16.6598 51.44 16.5318C50.8853 16.4038 50.4053 16.2118 50 15.9558C49.5947 15.6892 49.2747 15.3532 49.04 14.9478C48.8053 14.5425 48.6667 14.0732 48.624 13.5398L50.88 12.7878C50.912 13.2358 51.04 13.6092 51.264 13.9078C51.488 14.2065 51.7867 14.4305 52.16 14.5798C52.544 14.7185 52.9707 14.7878 53.44 14.7878C53.888 14.7878 54.2613 14.7345 54.56 14.6278C54.8693 14.5105 55.0987 14.3665 55.248 14.1958C55.408 14.0145 55.488 13.8225 55.488 13.6198C55.488 13.3852 55.3867 13.1932 55.184 13.0438C54.9813 12.8838 54.704 12.7505 54.352 12.6438C54 12.5265 53.5893 12.4145 53.12 12.3078C52.5867 12.1798 52.064 12.0412 51.552 11.8918C51.04 11.7425 50.576 11.5505 50.16 11.3158C49.744 11.0705 49.4133 10.7612 49.168 10.3878C48.9333 10.0038 48.816 9.52382 48.816 8.94782C48.816 8.29715 48.9813 7.73182 49.312 7.25182C49.6427 6.77182 50.128 6.39849 50.768 6.13182C51.408 5.85449 52.1973 5.71582 53.136 5.71582C54.064 5.71582 54.8533 5.84915 55.504 6.11582C56.1547 6.38249 56.656 6.75582 57.008 7.23582C57.36 7.70515 57.552 8.25449 57.584 8.88382L55.28 9.53982C55.28 9.23049 55.2267 8.95849 55.12 8.72382C55.024 8.48915 54.8853 8.29715 54.704 8.14782C54.5227 7.98782 54.2987 7.87049 54.032 7.79582C53.7653 7.71049 53.4613 7.66782 53.12 7.66782C52.7147 7.66782 52.368 7.71582 52.08 7.81182C51.8027 7.90782 51.5947 8.03582 51.456 8.19582C51.3173 8.34515 51.248 8.52115 51.248 8.72382C51.248 8.97982 51.3547 9.19315 51.568 9.36382C51.792 9.52382 52.0907 9.66249 52.464 9.77982C52.848 9.88649 53.2693 9.99315 53.728 10.0998C54.1867 10.1958 54.6613 10.3185 55.152 10.4678C55.6427 10.6065 56.1013 10.7932 56.528 11.0278C56.9547 11.2625 57.296 11.5825 57.552 11.9878C57.8187 12.3825 57.952 12.8838 57.952 13.4918C57.952 14.1425 57.776 14.7132 57.424 15.2038C57.0827 15.6838 56.5653 16.0572 55.872 16.3238C55.1787 16.5905 54.32 16.7238 53.296 16.7238Z" fill="#1A1A1A"/>
<path d="M59.6352 16.4998V5.93982H62.2272V16.4998H59.6352ZM61.5072 16.4998V14.4198H68.0192V16.4998H61.5072ZM61.5072 12.1158V10.2438H67.2032V12.1158H61.5072ZM61.5072 8.00382V5.93982H67.9712V8.00382H61.5072Z" fill="#1A1A1A"/>
<path d="M73.6866 16.7238C72.8226 16.7238 72.044 16.5265 71.3506 16.1318C70.6573 15.7372 70.108 15.1452 69.7026 14.3558C69.308 13.5558 69.1106 12.5532 69.1106 11.3478C69.1106 10.4625 69.2226 9.67315 69.4466 8.97982C69.6813 8.28649 70.028 7.69982 70.4866 7.21982C70.9453 6.72915 71.5053 6.35582 72.1666 6.09982C72.8386 5.84382 73.612 5.71582 74.4866 5.71582C75.148 5.71582 75.7453 5.79049 76.2786 5.93982C76.8226 6.08915 77.292 6.30249 77.6866 6.57982C78.0813 6.85715 78.3853 7.18782 78.5986 7.57182C78.8226 7.95582 78.94 8.38782 78.9506 8.86782L76.5186 9.61982C76.508 9.22515 76.4066 8.89449 76.2146 8.62782C76.0226 8.36115 75.7666 8.15849 75.4466 8.01982C75.1266 7.87049 74.7693 7.79582 74.3746 7.79582C73.82 7.79582 73.3506 7.92382 72.9666 8.17982C72.5933 8.42515 72.3053 8.80382 72.1026 9.31582C71.9106 9.82782 71.8146 10.4678 71.8146 11.2358C71.8146 11.8118 71.868 12.3185 71.9746 12.7558C72.092 13.1825 72.2626 13.5398 72.4866 13.8278C72.7106 14.1158 72.9826 14.3345 73.3026 14.4838C73.6333 14.6225 74.0226 14.6918 74.4706 14.6918C74.9186 14.6918 75.3026 14.6225 75.6226 14.4838C75.9533 14.3452 76.2146 14.1318 76.4066 13.8438C76.5986 13.5558 76.7 13.1878 76.7106 12.7398H74.8386V10.9158H79.2706V16.4998H77.5106L77.4786 13.8598H77.1586C76.9773 14.4785 76.7426 15.0012 76.4546 15.4278C76.1666 15.8545 75.7986 16.1798 75.3506 16.4038C74.9026 16.6172 74.348 16.7238 73.6866 16.7238Z" fill="#1A1A1A"/>
<path d="M85.9349 16.7238C85.2629 16.7238 84.6655 16.6545 84.1429 16.5158C83.6202 16.3878 83.1669 16.1958 82.7829 15.9398C82.3989 15.6838 82.0789 15.3745 81.8229 15.0118C81.5775 14.6492 81.3909 14.2438 81.2629 13.7958C81.1455 13.3372 81.0869 12.8412 81.0869 12.3078V5.93982H83.6789V12.2278C83.6789 12.7398 83.7589 13.1612 83.9189 13.4918C84.0789 13.8225 84.3242 14.0678 84.6549 14.2278C84.9855 14.3772 85.4069 14.4518 85.9189 14.4518C86.4309 14.4518 86.8522 14.3772 87.1829 14.2278C87.5135 14.0678 87.7589 13.8225 87.9189 13.4918C88.0789 13.1612 88.1589 12.7398 88.1589 12.2278V5.93982H90.7349V12.3078C90.7349 13.7052 90.3349 14.7932 89.5349 15.5718C88.7455 16.3398 87.5455 16.7238 85.9349 16.7238Z" fill="#1A1A1A"/>
<path d="M92.8853 16.4998V5.93982H96.2292L100.757 13.0278H100.949L100.789 5.93982H103.301V16.4998H100.277L95.4292 9.01182H95.2533L95.3972 16.4998H92.8853Z" fill="#1A1A1A"/>
<path d="M48.224 32.4998L51.808 21.9398H55.584L59.168 32.4998H56.352L53.824 23.9558H53.568L51.04 32.4998H48.224ZM50.352 30.5158V28.7878H57.424V30.5158H50.352Z" fill="#1A1A1A"/>
<path d="M60.4946 32.4998V21.9398H64.9906C65.5773 21.9398 66.1106 21.9878 66.5906 22.0838C67.0706 22.1692 67.492 22.3025 67.8546 22.4838C68.228 22.6545 68.5426 22.8678 68.7986 23.1238C69.0546 23.3692 69.2466 23.6572 69.3746 23.9878C69.5026 24.3078 69.5666 24.6652 69.5666 25.0598C69.5666 25.4332 69.508 25.7692 69.3906 26.0678C69.2733 26.3665 69.092 26.6278 68.8466 26.8518C68.612 27.0758 68.3133 27.2572 67.9506 27.3958C67.588 27.5345 67.1666 27.6358 66.6866 27.6998V27.9398C67.2946 28.0038 67.764 28.1425 68.0946 28.3558C68.436 28.5585 68.6973 28.8305 68.8786 29.1718C69.06 29.5132 69.22 29.9238 69.3586 30.4038L69.9666 32.4998H67.1026L66.6386 30.5638C66.5426 30.1372 66.4093 29.8065 66.2386 29.5718C66.0786 29.3372 65.8706 29.1772 65.6146 29.0918C65.3586 28.9958 65.0386 28.9478 64.6546 28.9478H63.0706V32.4998H60.4946ZM63.0706 27.0438H64.8146C65.4653 27.0438 65.972 26.9158 66.3346 26.6598C66.6973 26.4038 66.8786 26.0038 66.8786 25.4598C66.8786 24.9265 66.7133 24.5318 66.3826 24.2758C66.052 24.0198 65.5506 23.8918 64.8786 23.8918H63.0706V27.0438Z" fill="#1A1A1A"/>
<path d="M71.5102 32.4998V21.9398H74.1342V32.4998H71.5102Z" fill="#1A1A1A"/>
<path d="M76.354 32.4998V21.9398H80.914C81.5753 21.9398 82.1673 21.9985 82.69 22.1158C83.2233 22.2225 83.6767 22.3932 84.05 22.6278C84.4233 22.8518 84.706 23.1452 84.898 23.5078C85.1007 23.8598 85.202 24.2812 85.202 24.7718C85.202 25.1878 85.1113 25.5505 84.93 25.8598C84.7593 26.1692 84.4873 26.4198 84.114 26.6118C83.7407 26.8038 83.2447 26.9318 82.626 26.9958V27.2678C83.65 27.3318 84.4073 27.5772 84.898 28.0038C85.3887 28.4305 85.634 29.0065 85.634 29.7318C85.634 30.3505 85.4687 30.8625 85.138 31.2678C84.8073 31.6732 84.322 31.9825 83.682 32.1958C83.042 32.3985 82.2527 32.4998 81.314 32.4998H76.354ZM78.818 30.4518H81.218C81.8687 30.4518 82.3487 30.3612 82.658 30.1798C82.9673 29.9878 83.122 29.6892 83.122 29.2838C83.122 28.8358 82.9353 28.4998 82.562 28.2758C82.1887 28.0518 81.618 27.9398 80.85 27.9398H78.818V30.4518ZM78.818 26.3718H80.498C81.2553 26.3718 81.81 26.2705 82.162 26.0678C82.514 25.8545 82.69 25.5398 82.69 25.1238C82.69 24.7185 82.5247 24.4252 82.194 24.2438C81.874 24.0518 81.3833 23.9558 80.722 23.9558H78.818V26.3718Z" fill="#1A1A1A"/>
<path d="M87.4321 32.4998V21.9398H90.0561V32.4998H87.4321Z" fill="#1A1A1A"/>
<path d="M93.4759 32.4998V30.4198H96.5319C97.0865 30.4198 97.5505 30.3025 97.9239 30.0678C98.2972 29.8332 98.5745 29.4812 98.7559 29.0118C98.9479 28.5425 99.0439 27.9558 99.0439 27.2518C99.0439 26.6865 98.9852 26.2012 98.8679 25.7958C98.7505 25.3905 98.5745 25.0598 98.3399 24.8038C98.1159 24.5372 97.8225 24.3398 97.4599 24.2118C97.1079 24.0838 96.6919 24.0198 96.2119 24.0198H93.4759V21.9398H96.1159C97.4279 21.9398 98.4999 22.1478 99.3319 22.5638C100.164 22.9798 100.772 23.5772 101.156 24.3558C101.54 25.1238 101.732 26.0465 101.732 27.1238C101.732 27.9558 101.631 28.6758 101.428 29.2838C101.236 29.8918 100.969 30.4038 100.628 30.8198C100.287 31.2252 99.8919 31.5558 99.4439 31.8118C99.0065 32.0572 98.5425 32.2332 98.0519 32.3398C97.5719 32.4465 97.0919 32.4998 96.6119 32.4998H93.4759ZM92.2759 32.4998V21.9398H94.8519V32.4998H92.2759Z" fill="#1A1A1A"/>
<path d="M108.213 32.7238C107.445 32.7238 106.752 32.6065 106.133 32.3718C105.514 32.1372 104.981 31.7905 104.533 31.3318C104.096 30.8732 103.76 30.3078 103.525 29.6358C103.29 28.9532 103.173 28.1638 103.173 27.2678C103.173 26.0092 103.392 24.9745 103.829 24.1638C104.277 23.3425 104.89 22.7292 105.669 22.3238C106.448 21.9185 107.328 21.7158 108.309 21.7158C109.066 21.7158 109.754 21.8332 110.373 22.0678C110.992 22.3025 111.52 22.6492 111.957 23.1078C112.405 23.5665 112.746 24.1425 112.981 24.8358C113.226 25.5185 113.349 26.3078 113.349 27.2038C113.349 28.1318 113.221 28.9425 112.965 29.6358C112.72 30.3185 112.368 30.8892 111.909 31.3478C111.461 31.8065 110.922 32.1532 110.293 32.3878C109.664 32.6118 108.97 32.7238 108.213 32.7238ZM108.293 30.7078C108.816 30.7078 109.253 30.5798 109.605 30.3238C109.968 30.0572 110.24 29.6785 110.421 29.1878C110.613 28.6865 110.709 28.0785 110.709 27.3638C110.709 26.6065 110.613 25.9665 110.421 25.4438C110.229 24.9105 109.946 24.5105 109.573 24.2438C109.21 23.9665 108.762 23.8278 108.229 23.8278C107.717 23.8278 107.28 23.9612 106.917 24.2278C106.565 24.4838 106.293 24.8678 106.101 25.3798C105.909 25.8812 105.813 26.4998 105.813 27.2358C105.813 27.7905 105.866 28.2865 105.973 28.7238C106.09 29.1505 106.25 29.5132 106.453 29.8118C106.656 30.0998 106.912 30.3238 107.221 30.4838C107.541 30.6332 107.898 30.7078 108.293 30.7078Z" fill="#1A1A1A"/>
<path d="M3.59998 20.7464C5.36308 17.9028 12.8977 2.17971 17.0372 3.58918C21.7271 5.18603 32.0883 14.0367 33.0145 19.2399C33.9668 24.5905 31.2182 32.9812 25.5584 34.1374C21.2159 35.0246 9.49926 37.9685 9.49926 30.8734C9.49926 27.2697 9.75019 25.6594 12.1621 23.0062C12.5103 22.6232 18.6763 16.9802 16.8734 16.9802" stroke="#2F80ED" stroke-width="6.4" stroke-linecap="round"/>
</svg>
